<svg version="1" xmlns="http://www.w3.org/2000/svg" width="346.667" height="346.667" viewBox="0 0 260.000000 260.000000"><path d="M110 31.5c-39.6 8-70.9 39.6-78.6 79.5-1.9 9.6-1.9 28.4 0 38 7.7 40.2 39.3 71.9 79.4 79.6 9.5 1.8 28.9 1.8 38.4 0 40.1-7.7 71.7-39.3 79.4-79.6 1.9-9.6 1.9-28.4 0-38-7.7-40.2-39.3-71.9-79.4-79.6-9.1-1.7-30.4-1.7-39.2.1zm42 7.6c4.8 1.1 13 4.1 18.6 6.9 19.5 9.5 33.2 23.1 42.9 42.5 7.4 14.8 9.8 25.1 9.8 41.5s-2.4 26.7-9.8 41.5c-9.7 19.4-23.4 33-42.9 42.5-13.9 6.8-24.8 9.3-40.6 9.3-16.4 0-26.7-2.4-41.5-9.8-19.4-9.7-33-23.4-42.5-42.9-6.8-13.9-9.3-24.8-9.3-40.6 0-16.4 2.4-26.7 9.8-41.5C56.2 69.1 70 55.4 89.4 46c20.3-9.8 40.4-12.1 62.6-6.9z"/><path d="M121.5 55.6c-1.1.2-4.5.9-7.5 1.5s-9.8 3.1-15 5.6c-7.9 3.8-10.8 5.9-18 13.2-6.9 6.9-9.5 10.3-12.8 17.1-5.4 11-7.5 19.4-7.6 30.5 0 8.1.3 9.7 3 15.5 5.2 10.8 13.7 17.8 24.9 20.3 6.9 1.6 7.6 2.8 4.3 7.7-3.8 5.5-7.1 7.3-14 7.7-9.1.6-10.3 1-11.6 3.9-1 2-1 3.1 0 5.2 1.2 2.5 1.8 2.7 9.3 3 4.4.2 9.8-.2 12-.8 9.3-2.8 16.3-10.5 18.9-20.8 1-4 1.6-4.7 3.7-4.7h2.4l.3 22c.2 20.9.3 22 2.4 24.2 2.7 2.8 6.3 3 8.6.3 1.5-1.8 1.8-5.1 2.2-24.3l.5-22.2h5l.5 22.8c.5 21.2.6 23 2.4 24.3 2.8 2 6.3 1.7 8.4-.6 1.5-1.8 1.8-5.1 2.2-24.3l.5-22.2h2.4c2.1 0 2.7.7 3.7 4.7 2.6 10.3 9.6 18 18.9 20.8 2.2.6 7.6 1 12 .8 7.5-.3 8.1-.5 9.3-3 1-2.1 1-3.2 0-5.2-1.3-2.9-2.5-3.3-11.6-3.9-6.9-.4-10.2-2.2-14-7.7-3.3-4.9-2.6-6.1 4.3-7.7 11.2-2.5 19.7-9.5 24.9-20.3 2.7-5.8 3-7.4 3-15.5-.1-11.1-2.2-19.5-7.6-30.5C186 81 174 69.1 162 63.1c-4.7-2.3-11-4.8-14-5.6-5.6-1.6-22.8-2.8-26.5-1.9zm-16.4 50.7c6.6 3.5 10.2 9.3 10.7 17.1.5 7.4-1.6 12.5-7.2 17.4-8.1 7.1-18.8 6.7-27.2-1-5.2-4.8-6.8-9.1-6.2-16.9C76 112 84.6 104 95.5 104c3.5 0 6.6.8 9.6 2.3zm69 0c6.4 3.4 10.2 9.3 10.7 16.6.2 3.2-.1 7.5-.7 9.4-2.3 6.7-12.2 13.7-19.6 13.7-7.2 0-15-5.2-18.7-12.3-3-6-2.2-15.2 1.7-20.9 4-5.5 10.3-8.8 17-8.8 3.5 0 6.6.8 9.6 2.3z"/><path d="M89.3 112.6c-7 3.5-9.4 12.9-5 19.5 2.8 4.2 6 5.9 11.2 5.9 14.6 0 18.5-18.7 5.3-25.6-3.5-1.8-7.5-1.7-11.5.2zM158.5 112.9c-4.8 2.9-6.7 5.7-7.2 10.4-1.7 14.6 18.4 20.8 25.2 7.7 6-11.6-7.1-24.8-18-18.1z"/></svg>